<?xml version="1.0" encoding="UTF-8" standalone="no"?>
<!-- Created with Inkscape (http://www.inkscape.org/) -->

<svg
   version="1.1"
   id="svg1"
   width="1783.1506"
   height="850.34656"
   viewBox="0 0 1783.1506 850.34656"
   xmlns="http://www.w3.org/2000/svg"
   xmlns:svg="http://www.w3.org/2000/svg">
  <defs
     id="defs1">
    <clipPath
       clipPathUnits="userSpaceOnUse"
       id="clipPath2">
      <path
         d="m 45.642,57.068 h 1484.89 v 2622.53 H 45.642 Z"
         transform="translate(-966.55195,-1581.3384)"
         id="path2" />
    </clipPath>
  </defs>
  <g
     id="layer-MC0"
     transform="translate(-60.856,-1539.549)">
    <path
       id="path1"
       d="m 0,0 c -86.63,0 -208.17,-21.26 -430.28,-60.12 -490.64,-85.84 -490.64,-85.84 -490.64,-267.96 0,-182.12 0,-182.12 233.19,-261.43 87.26,-29.68 141.88,-48.25 200.89,-48.25 98.69,0 209.69,51.93 506.35,190.71 474.06,221.77 474.06,221.77 257.45,347.27 C 158.42,-31.1 104.73,0 0,0"
       style="fill:#211d1d;fill-opacity:1;fill-rule:nonzero;stroke:none"
       transform="matrix(1.3333333,0,0,-1.3333333,1288.7359,1539.5489)"
       clip-path="url(#clipPath2)" />
  </g>
</svg>
